<svg width="49" height="48" viewBox="0 0 49 48" fill="none" xmlns="http://www.w3.org/2000/svg">
<path fill-rule="evenodd" clip-rule="evenodd" d="M23.1429 2.7169C23.5055 2.50981 23.9158 2.40088 24.3333 2.40088C24.7508 2.40088 25.1612 2.50981 25.5237 2.7169L29.7237 5.11691C30.0052 5.26903 30.2534 5.4759 30.4538 5.72534C30.6541 5.97479 30.8026 6.26179 30.8904 6.56945C30.9783 6.87711 31.0037 7.19923 30.9652 7.51686C30.9267 7.83449 30.8251 8.14122 30.6664 8.41902C30.5077 8.69681 30.295 8.94007 30.0409 9.13447C29.7867 9.32887 29.4963 9.4705 29.1867 9.55103C28.877 9.63155 28.5544 9.64935 28.2377 9.60338C27.9211 9.5574 27.6169 9.44858 27.3429 9.28331L24.3333 7.56491L21.3237 9.28331C21.0497 9.44858 20.7455 9.5574 20.4289 9.60338C20.1122 9.64935 19.7896 9.63155 19.48 9.55103C19.1703 9.4705 18.8799 9.32887 18.6258 9.13447C18.3716 8.94007 18.159 8.69681 18.0002 8.41902C17.8415 8.14122 17.7399 7.83449 17.7014 7.51686C17.6629 7.19923 17.6884 6.87711 17.7762 6.56945C17.864 6.26179 18.0125 5.97479 18.2129 5.72534C18.4132 5.4759 18.6614 5.26903 18.9429 5.11691L23.1429 2.7169V2.7169ZM13.8165 10.8097C14.132 11.3622 14.2152 12.0175 14.0478 12.6313C13.8804 13.2452 13.4761 13.7675 12.9237 14.0833L12.3717 14.4001L12.9237 14.7169C13.2052 14.869 13.4534 15.0759 13.6538 15.3253C13.8541 15.5748 14.0026 15.8618 14.0904 16.1694C14.1783 16.4771 14.2037 16.7992 14.1652 17.1169C14.1267 17.4345 14.0251 17.7412 13.8664 18.019C13.7077 18.2968 13.495 18.5401 13.2409 18.7345C12.9867 18.9289 12.6963 19.0705 12.3867 19.151C12.077 19.2316 11.7544 19.2494 11.4377 19.2034C11.1211 19.1574 10.8169 19.0486 10.5429 18.8833L9.93331 18.5353V19.2001C9.93331 19.8366 9.68046 20.4471 9.23037 20.8972C8.78028 21.3472 8.16983 21.6001 7.53331 21.6001C6.89679 21.6001 6.28634 21.3472 5.83626 20.8972C5.38617 20.4471 5.13331 19.8366 5.13331 19.2001V14.4001C5.13197 13.969 5.24725 13.5455 5.46696 13.1745C5.68666 12.8036 6.0026 12.4989 6.38131 12.2929L10.5429 9.91691C11.0955 9.60137 11.7507 9.51817 12.3645 9.68559C12.9784 9.85301 13.5007 10.2573 13.8165 10.8097V10.8097ZM34.8501 10.8097C35.166 10.2573 35.6882 9.85301 36.3021 9.68559C36.9159 9.51817 37.5712 9.60137 38.1237 9.91691L42.2829 12.2929C42.6611 12.4998 42.9766 12.8046 43.1966 13.1753C43.4166 13.546 43.5329 13.969 43.5333 14.4001V19.2001C43.5333 19.8366 43.2805 20.4471 42.8304 20.8972C42.3803 21.3472 41.7698 21.6001 41.1333 21.6001C40.4968 21.6001 39.8863 21.3472 39.4363 20.8972C38.9862 20.4471 38.7333 19.8366 38.7333 19.2001V18.5353L38.1237 18.8833C37.8497 19.0486 37.5455 19.1574 37.2289 19.2034C36.9122 19.2494 36.5896 19.2316 36.28 19.151C35.9703 19.0705 35.6799 18.9289 35.4258 18.7345C35.1716 18.5401 34.959 18.2968 34.8002 18.019C34.6415 17.7412 34.5399 17.4345 34.5014 17.1169C34.4629 16.7992 34.4884 16.4771 34.5762 16.1694C34.664 15.8618 34.8125 15.5748 35.0129 15.3253C35.2132 15.0759 35.4614 14.869 35.7429 14.7169L36.2949 14.4001L35.7429 14.0833C35.1905 13.7675 34.7862 13.2452 34.6188 12.6313C34.4514 12.0175 34.5346 11.3622 34.8501 10.8097V10.8097ZM18.0501 20.4097C18.366 19.8573 18.8882 19.453 19.5021 19.2856C20.1159 19.1182 20.7712 19.2014 21.3237 19.5169L24.3333 21.2353L27.3429 19.5169C27.6169 19.3516 27.9211 19.2428 28.2377 19.1968C28.5544 19.1509 28.877 19.1687 29.1867 19.2492C29.4963 19.3297 29.7867 19.4713 30.0409 19.6657C30.295 19.8601 30.5077 20.1034 30.6664 20.3812C30.8251 20.659 30.9267 20.9657 30.9652 21.2834C31.0037 21.601 30.9783 21.9231 30.8904 22.2308C30.8026 22.5384 30.6541 22.8254 30.4538 23.0749C30.2534 23.3243 30.0052 23.5312 29.7237 23.6833L26.7333 25.3921V28.8001C26.7333 29.4366 26.4805 30.0471 26.0304 30.4972C25.5803 30.9472 24.9698 31.2001 24.3333 31.2001C23.6968 31.2001 23.0863 30.9472 22.6363 30.4972C22.1862 30.0471 21.9333 29.4366 21.9333 28.8001V25.3921L18.9429 23.6833C18.3905 23.3675 17.9862 22.8452 17.8188 22.2313C17.6514 21.6175 17.7346 20.9622 18.0501 20.4097V20.4097ZM7.53331 26.4001C8.16983 26.4001 8.78028 26.653 9.23037 27.1031C9.68046 27.5531 9.93331 28.1636 9.93331 28.8001V32.2081L12.9237 33.9169C13.2052 34.069 13.4534 34.2759 13.6538 34.5253C13.8541 34.7748 14.0026 35.0618 14.0904 35.3694C14.1783 35.6771 14.2037 35.9992 14.1652 36.3169C14.1267 36.6345 14.0251 36.9412 13.8664 37.219C13.7077 37.4968 13.495 37.7401 13.2409 37.9345C12.9867 38.1289 12.6963 38.2705 12.3867 38.351C12.077 38.4316 11.7544 38.4494 11.4377 38.4034C11.1211 38.3574 10.8169 38.2486 10.5429 38.0833L6.34291 35.6833C5.97558 35.4735 5.67024 35.1703 5.45782 34.8045C5.2454 34.4386 5.13345 34.0231 5.13331 33.6001V28.8001C5.13331 28.1636 5.38617 27.5531 5.83626 27.1031C6.28634 26.653 6.89679 26.4001 7.53331 26.4001V26.4001ZM41.1333 26.4001C41.7698 26.4001 42.3803 26.653 42.8304 27.1031C43.2805 27.5531 43.5333 28.1636 43.5333 28.8001V33.6001C43.5332 34.0231 43.4212 34.4386 43.2088 34.8045C42.9964 35.1703 42.691 35.4735 42.3237 35.6833L38.1237 38.0833C37.8497 38.2486 37.5455 38.3574 37.2289 38.4034C36.9122 38.4494 36.5896 38.4316 36.28 38.351C35.9703 38.2705 35.6799 38.1289 35.4258 37.9345C35.1716 37.7401 34.959 37.4968 34.8002 37.219C34.6415 36.9412 34.5399 36.6345 34.5014 36.3169C34.4629 35.9992 34.4884 35.6771 34.5762 35.3694C34.664 35.0618 34.8125 34.7748 35.0129 34.5253C35.2132 34.2759 35.4614 34.069 35.7429 33.9169L38.7333 32.2081V28.8001C38.7333 28.1636 38.9862 27.5531 39.4363 27.1031C39.8863 26.653 40.4968 26.4001 41.1333 26.4001ZM18.0501 39.6097C18.366 39.0573 18.8882 38.653 19.5021 38.4856C20.1159 38.3182 20.7712 38.4014 21.3237 38.7169L21.9333 39.0649V38.4001C21.9333 37.7636 22.1862 37.1531 22.6363 36.7031C23.0863 36.253 23.6968 36.0001 24.3333 36.0001C24.9698 36.0001 25.5803 36.253 26.0304 36.7031C26.4805 37.1531 26.7333 37.7636 26.7333 38.4001V39.0649L27.3429 38.7169C27.6169 38.5516 27.9211 38.4428 28.2377 38.3968C28.5544 38.3509 28.877 38.3687 29.1867 38.4492C29.4963 38.5297 29.7867 38.6713 30.0409 38.8657C30.295 39.0601 30.5077 39.3034 30.6664 39.5812C30.8251 39.859 30.9267 40.1657 30.9652 40.4834C31.0037 40.801 30.9783 41.1231 30.8904 41.4308C30.8026 41.7384 30.6541 42.0254 30.4538 42.2749C30.2534 42.5243 30.0052 42.7312 29.7237 42.8833L25.5597 45.2641C25.1891 45.4859 24.7652 45.6031 24.3333 45.6031C23.9014 45.6031 23.4775 45.4859 23.1069 45.2641L18.9429 42.8833C18.3905 42.5675 17.9862 42.0452 17.8188 41.4313C17.6514 40.8175 17.7346 40.1622 18.0501 39.6097V39.6097Z" fill="#7E3AF2"/>
</svg>
