<svg width="19" height="18" viewBox="0 0 19 18" fill="none" xmlns="http://www.w3.org/2000/svg">
<rect x="0.666504" width="18" height="18" rx="9" fill="#D5F5F6"/>
<path fill-rule="evenodd" clip-rule="evenodd" d="M14.3612 5.70495C14.4924 5.83622 14.5662 6.01424 14.5662 6.19985C14.5662 6.38547 14.4924 6.56348 14.3612 6.69475L8.7612 12.2948C8.62993 12.426 8.45192 12.4997 8.2663 12.4997C8.08069 12.4997 7.90267 12.426 7.7714 12.2948L4.9714 9.49475C4.84389 9.36273 4.77333 9.18591 4.77493 9.00237C4.77652 8.81883 4.85014 8.64326 4.97993 8.51348C5.10971 8.38369 5.28528 8.31007 5.46882 8.30848C5.65236 8.30688 5.82918 8.37744 5.9612 8.50495L8.2663 10.8101L13.3714 5.70495C13.5027 5.57372 13.6807 5.5 13.8663 5.5C14.0519 5.5 14.2299 5.57372 14.3612 5.70495Z" fill="#0694A2"/>
</svg>
