<svg width="19" height="18" viewBox="0 0 19 18" fill="none" xmlns="http://www.w3.org/2000/svg">
<rect x="0.333252" width="18" height="18" rx="9" fill="#EDEBFE"/>
<path fill-rule="evenodd" clip-rule="evenodd" d="M14.0282 5.70495C14.1594 5.83622 14.2331 6.01424 14.2331 6.19985C14.2331 6.38547 14.1594 6.56348 14.0282 6.69475L8.42819 12.2948C8.29692 12.426 8.11891 12.4997 7.93329 12.4997C7.74768 12.4997 7.56966 12.426 7.43839 12.2948L4.63839 9.49475C4.51088 9.36273 4.44033 9.18591 4.44192 9.00237C4.44352 8.81883 4.51713 8.64326 4.64692 8.51348C4.77671 8.38369 4.95227 8.31007 5.13581 8.30848C5.31935 8.30688 5.49617 8.37744 5.62819 8.50495L7.93329 10.8101L13.0384 5.70495C13.1697 5.57372 13.3477 5.5 13.5333 5.5C13.7189 5.5 13.8969 5.57372 14.0282 5.70495Z" fill="#7E3AF2"/>
</svg>
