<svg width="18" height="18" viewBox="0 0 18 18" fill="none" xmlns="http://www.w3.org/2000/svg">
<rect width="18" height="18" rx="9" fill="#E1EFFE"/>
<path fill-rule="evenodd" clip-rule="evenodd" d="M13.6949 5.70495C13.8262 5.83622 13.8999 6.01424 13.8999 6.19985C13.8999 6.38547 13.8262 6.56348 13.6949 6.69475L8.09494 12.2948C7.96367 12.426 7.78566 12.4997 7.60004 12.4997C7.41443 12.4997 7.23641 12.426 7.10514 12.2948L4.30514 9.49475C4.17763 9.36273 4.10707 9.18591 4.10867 9.00237C4.11026 8.81883 4.18388 8.64326 4.31367 8.51348C4.44345 8.38369 4.61902 8.31007 4.80256 8.30848C4.9861 8.30688 5.16292 8.37744 5.29494 8.50495L7.60004 10.8101L12.7051 5.70495C12.8364 5.57372 13.0144 5.5 13.2 5.5C13.3857 5.5 13.5637 5.57372 13.6949 5.70495Z" fill="#1C64F2"/>
</svg>
