<svg width="49" height="48" viewBox="0 0 49 48" fill="none" xmlns="http://www.w3.org/2000/svg">
<path fill-rule="evenodd" clip-rule="evenodd" d="M23.9227 45.439L23.9299 45.4414C24.4027 45.6478 24.6667 45.5998 24.6667 45.5998C24.6667 45.5998 24.9307 45.6478 25.4059 45.4414L25.4107 45.439L25.4251 45.4318L25.4683 45.4126C25.6961 45.3068 25.921 45.1947 26.1427 45.0766C26.5891 44.8462 27.2131 44.5006 27.9595 44.0374C29.4475 43.1158 31.4275 41.719 33.4171 39.8014C37.3915 35.971 41.4667 29.983 41.4667 21.5998C41.4667 19.3936 41.0322 17.209 40.1879 15.1707C39.3436 13.1325 38.1061 11.2804 36.5461 9.72041C34.9861 8.16039 33.1341 6.92291 31.0958 6.07863C29.0575 5.23435 26.8729 4.7998 24.6667 4.7998C22.4605 4.7998 20.2759 5.23435 18.2376 6.07863C16.1993 6.92291 14.3473 8.16039 12.7873 9.72041C11.2273 11.2804 9.9898 13.1325 9.14552 15.1707C8.30124 17.209 7.8667 19.3936 7.8667 21.5998C7.8667 29.9806 11.9419 35.971 15.9187 39.8014C17.5837 41.4006 19.4121 42.8204 21.3739 44.0374C22.1337 44.5092 22.9154 44.9449 23.7163 45.343L23.8651 45.4126L23.9083 45.4318L23.9227 45.439ZM24.6667 26.9998C26.0989 26.9998 27.4724 26.4309 28.4851 25.4182C29.4978 24.4055 30.0667 23.032 30.0667 21.5998C30.0667 20.1676 29.4978 18.7941 28.4851 17.7814C27.4724 16.7687 26.0989 16.1998 24.6667 16.1998C23.2345 16.1998 21.861 16.7687 20.8483 17.7814C19.8356 18.7941 19.2667 20.1676 19.2667 21.5998C19.2667 23.032 19.8356 24.4055 20.8483 25.4182C21.861 26.4309 23.2345 26.9998 24.6667 26.9998Z" fill="#0694A2"/>
</svg>
