<svg width="48" height="48" viewBox="0 0 48 48" fill="none" xmlns="http://www.w3.org/2000/svg">
<path fill-rule="evenodd" clip-rule="evenodd" d="M43.2001 23.9998C43.2001 29.092 41.1772 33.9756 37.5765 37.5763C33.9758 41.177 29.0922 43.1998 24 43.1998C18.9079 43.1998 14.0243 41.177 10.4236 37.5763C6.8229 33.9756 4.80005 29.092 4.80005 23.9998C4.80005 18.9076 6.8229 14.0241 10.4236 10.4234C14.0243 6.82266 18.9079 4.7998 24 4.7998C29.0922 4.7998 33.9758 6.82266 37.5765 10.4234C41.1772 14.0241 43.2001 18.9076 43.2001 23.9998V23.9998ZM38.4001 23.9998C38.4001 26.383 37.8216 28.6294 36.7968 30.6094L33.1392 26.9494C33.6869 25.2543 33.7517 23.4401 33.3264 21.7102L37.0753 17.9614C37.9249 19.7974 38.4001 21.8398 38.4001 23.9998ZM26.004 33.391L29.796 37.183C27.9697 37.9871 25.9956 38.4016 24 38.3998C21.9149 38.4024 19.8542 37.9503 17.9616 37.075L21.7104 33.3262C23.1185 33.6712 24.5863 33.6934 26.004 33.391V33.391ZM14.7792 26.6806C14.307 25.0544 14.273 23.3322 14.6808 21.6886L14.4888 21.8806L10.8168 18.2014C10.0124 20.0285 9.59795 22.0034 9.60005 23.9998C9.60005 26.2894 10.1352 28.4542 11.0856 30.3766L14.7816 26.6806H14.7792ZM17.3904 11.2006C19.4334 10.1446 21.7004 9.5956 24 9.5998C26.2896 9.5998 28.4544 10.135 30.3768 11.0854L26.6808 14.7814C24.8383 14.2447 22.8772 14.2723 21.0504 14.8606L17.3904 11.203V11.2006ZM28.8 23.9998C28.8 25.2728 28.2943 26.4937 27.3942 27.3939C26.494 28.2941 25.2731 28.7998 24 28.7998C22.727 28.7998 21.5061 28.2941 20.6059 27.3939C19.7058 26.4937 19.2 25.2728 19.2 23.9998C19.2 22.7268 19.7058 21.5059 20.6059 20.6057C21.5061 19.7055 22.727 19.1998 24 19.1998C25.2731 19.1998 26.494 19.7055 27.3942 20.6057C28.2943 21.5059 28.8 22.7268 28.8 23.9998V23.9998Z" fill="#1C64F2"/>
</svg>
