<svg width="16" height="17" viewBox="0 0 16 17" fill="none" xmlns="http://www.w3.org/2000/svg">
<g id="heart">
<path id="Vector" fill-rule="evenodd" clip-rule="evenodd" d="M2.53762 4.63757C3.13771 4.03766 3.9515 3.70065 4.80002 3.70065C5.64855 3.70065 6.46234 4.03766 7.06242 4.63757L8.00002 5.57437L8.93762 4.63757C9.23281 4.33193 9.58592 4.08815 9.97633 3.92044C10.3667 3.75273 10.7866 3.66446 11.2115 3.66077C11.6364 3.65707 12.0578 3.73804 12.4511 3.89894C12.8443 4.05984 13.2016 4.29745 13.5021 4.5979C13.8025 4.89836 14.0402 5.25565 14.2011 5.64891C14.362 6.04218 14.4429 6.46356 14.4392 6.88845C14.4355 7.31334 14.3473 7.73325 14.1795 8.12366C14.0118 8.51407 13.7681 8.86718 13.4624 9.16237L8.00002 14.6256L2.53762 9.16237C1.93772 8.56228 1.60071 7.74849 1.60071 6.89997C1.60071 6.05144 1.93772 5.23766 2.53762 4.63757V4.63757Z" fill="white"/>
</g>
</svg>
