<svg width="14" height="15" viewBox="0 0 14 15" fill="none" xmlns="http://www.w3.org/2000/svg">
<g id="search">
<path id="Vector" d="M8.37063 8.58792L8.66947 8.88677L12.0374 12.2547C12.0725 12.2921 12.0919 12.3417 12.0914 12.3931C12.091 12.4456 12.0699 12.4957 12.0328 12.5328C11.9958 12.5699 11.9456 12.5909 11.8932 12.5914C11.8417 12.5919 11.7922 12.5725 11.7547 12.5374L8.38748 9.17016L8.08862 8.8713L7.74417 9.11623C7.19063 9.50983 6.53942 9.74347 5.86191 9.79155C5.18439 9.83962 4.50672 9.70028 3.90314 9.38877C3.29957 9.07727 2.79338 8.60564 2.44005 8.02556C2.08673 7.44548 1.89989 6.77933 1.90002 6.10011L1.90002 6.09995C1.89995 5.51763 2.03732 4.94352 2.30096 4.4243C2.56461 3.90509 2.94708 3.45543 3.41727 3.11191C3.88746 2.76838 4.4321 2.54068 5.00688 2.44733C5.58167 2.35398 6.17037 2.39761 6.72511 2.57468C7.27985 2.75175 7.78497 3.05725 8.19938 3.46635C8.61379 3.87544 8.92579 4.37657 9.11 4.92898C9.29422 5.48139 9.34545 6.06948 9.25953 6.64542C9.1736 7.22136 8.95295 7.76889 8.61553 8.24348L8.37063 8.58792ZM5.60002 2.80001C4.72481 2.80001 3.88544 3.14769 3.26657 3.76656C2.6477 4.38543 2.30002 5.2248 2.30002 6.10001C2.30002 6.97523 2.6477 7.81459 3.26657 8.43346C3.88544 9.05233 4.72481 9.40001 5.60002 9.40001C6.47524 9.40001 7.31461 9.05233 7.93348 8.43346C8.55235 7.81459 8.90002 6.97523 8.90002 6.10001C8.90002 5.2248 8.55235 4.38543 7.93348 3.76656C7.31461 3.14769 6.47524 2.80001 5.60002 2.80001Z" fill="#111928" stroke="#9CA3AF"/>
</g>
</svg>
