<svg width="17" height="17" viewBox="0 0 17 17" fill="none" xmlns="http://www.w3.org/2000/svg">
<g id="search">
<path id="Vector" fill-rule="evenodd" clip-rule="evenodd" d="M6.9001 3.7C6.0514 3.7 5.23747 4.03714 4.63736 4.63726C4.03724 5.23738 3.7001 6.05131 3.7001 6.9C3.7001 7.74869 4.03724 8.56263 4.63736 9.16274C5.23747 9.76286 6.0514 10.1 6.9001 10.1C7.74879 10.1 8.56272 9.76286 9.16284 9.16274C9.76296 8.56263 10.1001 7.74869 10.1001 6.9C10.1001 6.05131 9.76296 5.23738 9.16284 4.63726C8.56272 4.03714 7.74879 3.7 6.9001 3.7ZM2.1001 6.9C2.1 6.14456 2.27821 5.39977 2.62023 4.72619C2.96226 4.05262 3.45844 3.46928 4.06841 3.02362C4.67839 2.57796 5.38495 2.28257 6.13061 2.16147C6.87628 2.04036 7.64 2.09697 8.35967 2.32668C9.07933 2.55639 9.73462 2.95272 10.2722 3.48344C10.8098 4.01415 11.2146 4.66427 11.4536 5.38091C11.6926 6.09755 11.759 6.86047 11.6476 7.60764C11.5361 8.35481 11.2498 9.06512 10.8121 9.6808L14.6657 13.5344C14.8114 13.6853 14.8921 13.8874 14.8902 14.0971C14.8884 14.3069 14.8043 14.5075 14.656 14.6559C14.5076 14.8042 14.307 14.8883 14.0972 14.8901C13.8875 14.892 13.6854 14.8113 13.5345 14.6656L9.6817 10.8128C8.96359 11.3234 8.11878 11.6265 7.23984 11.6889C6.3609 11.7513 5.48176 11.5705 4.69874 11.1664C3.91572 10.7623 3.25905 10.1504 2.80068 9.39788C2.34231 8.64534 2.09993 7.78115 2.1001 6.9V6.9Z" fill="white"/>
</g>
</svg>
