<svg width="12" height="12" viewBox="0 0 12 12" fill="none" xmlns="http://www.w3.org/2000/svg">
<g id="eye">
<path id="Vector" d="M6.49576 6.49496L6.84931 6.84852L6.49576 6.49496C6.36448 6.62624 6.18643 6.69999 6.00078 6.69999C5.81513 6.69999 5.63708 6.62624 5.50581 6.49496C5.37453 6.36369 5.30078 6.18564 5.30078 5.99999C5.30078 5.81434 5.37453 5.63629 5.50581 5.50501C5.63708 5.37374 5.81513 5.29999 6.00078 5.29999C6.18643 5.29999 6.36448 5.37374 6.49576 5.50501C6.62703 5.63629 6.70078 5.81434 6.70078 5.99999C6.70078 6.18564 6.62703 6.36369 6.49576 6.49496Z" fill="#111928" stroke="#6B7280"/>
<path id="Vector_2" fill-rule="evenodd" clip-rule="evenodd" d="M0.275391 5.99999C1.03979 3.56579 3.31379 1.79999 6.00059 1.79999C8.68739 1.79999 10.9614 3.56579 11.7258 5.99999C10.9614 8.43419 8.68739 10.2 6.00059 10.2C3.31379 10.2 1.03979 8.43419 0.275391 5.99999ZM8.40059 5.99999C8.40059 6.63651 8.14773 7.24696 7.69765 7.69704C7.24756 8.14713 6.63711 8.39999 6.00059 8.39999C5.36407 8.39999 4.75362 8.14713 4.30353 7.69704C3.85345 7.24696 3.60059 6.63651 3.60059 5.99999C3.60059 5.36347 3.85345 4.75302 4.30353 4.30293C4.75362 3.85284 5.36407 3.59999 6.00059 3.59999C6.63711 3.59999 7.24756 3.85284 7.69765 4.30293C8.14773 4.75302 8.40059 5.36347 8.40059 5.99999Z" fill="#9CA3AF"/>
</g>
</svg>
